<svg xmlns="http://www.w3.org/2000/svg" xmlns:xlink="http://www.w3.org/1999/xlink" width="1080" zoomAndPan="magnify" viewBox="0 0 810 1439.999935" height="1920" preserveAspectRatio="xMidYMid meet" version="1.0"><defs><g/><clipPath id="4aaa3b79f8"><path d="M 43.550781 357.191406 L 788.300781 357.191406 L 788.300781 1164.191406 L 43.550781 1164.191406 Z M 43.550781 357.191406 " clip-rule="nonzero"/></clipPath></defs><path fill="#7595a0" d="M 394.910156 34.066406 C 311.308594 68.988281 230.230469 113.492188 165.953125 177.34375 C 101.679688 241.1875 55.230469 326.246094 50.988281 416.734375 C 46.515625 512.128906 87.875 602.828125 124.488281 691.035156 C 142.792969 735.136719 160.1875 779.875 170.449219 826.507812 C 180.710938 873.140625 183.652344 922.019531 173 968.5625 C 158.058594 1033.875 117.820312 1090.058594 89.566406 1150.816406 C 75.4375 1181.195312 64.152344 1213.308594 60.988281 1246.660156 C 57.824219 1280.011719 63.25 1314.824219 80.578125 1343.5 C 96.421875 1369.707031 121.421875 1389.558594 148.96875 1402.945312 C 176.515625 1416.332031 206.628906 1423.640625 236.832031 1428.714844 C 325.46875 1443.601562 417.902344 1439.671875 503.289062 1411.621094 C 588.675781 1383.570312 666.65625 1330.75 719.796875 1258.28125 C 750.738281 1216.089844 773.136719 1167.488281 783.71875 1116.25 C 806.742188 1004.765625 773.441406 890.085938 738.042969 781.882812 C 702.644531 673.6875 664.277344 561.824219 677.179688 448.707031 C 682.875 398.769531 698.453125 350.566406 709.289062 301.476562 C 720.121094 252.394531 726.128906 200.6875 712.691406 152.253906 C 699.082031 103.191406 665.335938 60.277344 621.503906 34.355469 C 577.671875 8.4375 524.316406 -0.488281 474.1875 8.476562 C 446.792969 13.375 420.582031 23.332031 394.910156 34.054688 Z M 394.910156 34.066406 " fill-opacity="1" fill-rule="nonzero"/><g clip-path="url(#4aaa3b79f8)"><path fill="#000000" d="M 780.042969 1027.050781 L 459.796875 1027.050781 C 456.332031 1027.050781 453.246094 1029.21875 452.0625 1032.46875 L 424.148438 1109.289062 L 424.148438 908.292969 L 495.941406 771.972656 C 499.03125 766.105469 505.066406 762.457031 511.703125 762.457031 C 524.90625 762.457031 535.648438 751.71875 535.648438 738.523438 L 535.648438 708.558594 C 535.648438 695.300781 525.085938 684.789062 511.601562 684.621094 C 507.519531 684.574219 504.203125 681.214844 504.203125 677.132812 L 504.203125 637.667969 C 504.203125 633.535156 507.566406 630.175781 511.695312 630.175781 L 561.78125 630.175781 C 566.320312 630.175781 570.003906 626.496094 570.003906 621.957031 L 570.003906 555.4375 C 570.003906 550.898438 566.320312 547.21875 561.78125 547.21875 L 513.160156 547.21875 C 509.023438 547.21875 505.667969 543.855469 505.667969 539.730469 L 505.667969 365.410156 C 505.671875 360.871094 501.988281 357.191406 497.449219 357.191406 L 334.398438 357.191406 C 329.855469 357.191406 326.171875 360.871094 326.171875 365.410156 L 326.171875 539.722656 C 326.171875 543.855469 322.808594 547.210938 318.679688 547.210938 L 270.058594 547.210938 C 265.519531 547.210938 261.835938 550.894531 261.835938 555.433594 L 261.835938 621.945312 C 261.835938 626.484375 265.519531 630.164062 270.058594 630.164062 L 320.144531 630.164062 C 324.277344 630.164062 327.636719 633.527344 327.636719 637.652344 L 327.636719 677.121094 C 327.636719 681.265625 324.210938 684.554688 319.84375 684.617188 C 319.71875 684.617188 319.597656 684.636719 319.480469 684.636719 C 319.339844 684.640625 319.191406 684.648438 319.054688 684.660156 C 306.382812 685.238281 296.199219 695.78125 296.199219 708.546875 L 296.199219 738.507812 C 296.199219 751.707031 306.941406 762.445312 320.144531 762.445312 C 326.777344 762.445312 332.8125 766.085938 335.90625 771.953125 L 407.695312 908.273438 L 407.695312 1109.261719 L 379.789062 1032.449219 C 378.605469 1029.199219 375.511719 1027.03125 372.058594 1027.03125 L 51.800781 1027.03125 C 47.261719 1027.03125 43.578125 1030.714844 43.578125 1035.253906 L 43.578125 1115.832031 C 43.578125 1120.371094 47.261719 1124.054688 51.800781 1124.054688 C 56.34375 1124.054688 60.023438 1120.371094 60.023438 1115.832031 L 60.023438 1043.480469 L 366.285156 1043.480469 L 408.1875 1158.792969 C 408.203125 1158.828125 408.214844 1158.847656 408.226562 1158.878906 C 408.367188 1159.253906 408.527344 1159.613281 408.714844 1159.949219 C 408.71875 1159.964844 408.726562 1159.96875 408.734375 1159.984375 C 408.914062 1160.308594 409.117188 1160.613281 409.339844 1160.90625 C 409.378906 1160.960938 409.417969 1161.019531 409.464844 1161.074219 C 409.691406 1161.359375 409.9375 1161.632812 410.195312 1161.882812 C 410.242188 1161.929688 410.289062 1161.972656 410.335938 1162.011719 C 410.582031 1162.242188 410.847656 1162.457031 411.121094 1162.65625 C 411.160156 1162.683594 411.191406 1162.707031 411.234375 1162.734375 C 411.539062 1162.949219 411.863281 1163.132812 412.195312 1163.304688 C 412.25 1163.332031 412.308594 1163.359375 412.363281 1163.386719 C 412.695312 1163.546875 413.039062 1163.691406 413.398438 1163.804688 C 413.40625 1163.804688 413.414062 1163.8125 413.417969 1163.8125 C 413.777344 1163.925781 414.152344 1164.011719 414.53125 1164.070312 C 414.609375 1164.085938 414.691406 1164.097656 414.769531 1164.105469 C 415.148438 1164.15625 415.527344 1164.191406 415.917969 1164.191406 C 416.304688 1164.191406 416.691406 1164.152344 417.0625 1164.105469 C 417.148438 1164.089844 417.230469 1164.078125 417.308594 1164.0625 C 417.679688 1163.996094 418.046875 1163.917969 418.40625 1163.804688 C 418.425781 1163.796875 418.4375 1163.792969 418.457031 1163.785156 C 418.804688 1163.671875 419.136719 1163.53125 419.457031 1163.378906 C 419.523438 1163.347656 419.589844 1163.320312 419.648438 1163.285156 C 419.976562 1163.121094 420.289062 1162.933594 420.585938 1162.726562 C 420.640625 1162.695312 420.6875 1162.65625 420.738281 1162.617188 C 421 1162.429688 421.238281 1162.230469 421.46875 1162.015625 C 421.53125 1161.964844 421.589844 1161.910156 421.648438 1161.859375 C 421.902344 1161.613281 422.136719 1161.347656 422.355469 1161.074219 C 422.40625 1161.007812 422.460938 1160.933594 422.515625 1160.867188 C 422.71875 1160.59375 422.90625 1160.308594 423.074219 1160.011719 C 423.085938 1159.976562 423.105469 1159.949219 423.125 1159.925781 C 423.304688 1159.589844 423.457031 1159.246094 423.597656 1158.886719 C 423.609375 1158.847656 423.632812 1158.8125 423.644531 1158.773438 L 465.546875 1043.460938 L 771.808594 1043.460938 L 771.808594 1115.8125 C 771.808594 1120.351562 775.492188 1124.03125 780.03125 1124.03125 C 784.570312 1124.03125 788.253906 1120.351562 788.253906 1115.8125 L 788.253906 1035.273438 C 788.265625 1030.734375 784.585938 1027.050781 780.042969 1027.050781 Z M 320.144531 746.019531 C 316.007812 746.019531 312.652344 742.65625 312.652344 738.527344 L 312.652344 708.566406 C 312.652344 704.484375 315.96875 701.128906 320.042969 701.074219 L 403.496094 701.074219 C 408.035156 701.074219 411.71875 697.394531 411.71875 692.855469 C 411.71875 688.316406 408.035156 684.636719 403.496094 684.636719 L 342.886719 684.636719 C 343.65625 682.28125 344.082031 679.769531 344.082031 677.140625 L 344.082031 637.671875 C 344.082031 624.476562 333.339844 613.738281 320.136719 613.738281 L 278.273438 613.738281 L 278.273438 563.671875 L 446.992188 563.671875 C 451.53125 563.671875 455.214844 559.992188 455.214844 555.453125 C 455.214844 550.914062 451.53125 547.230469 446.992188 547.230469 L 341.417969 547.230469 C 342.195312 544.871094 342.625 542.355469 342.625 539.742188 L 342.625 373.636719 L 489.226562 373.636719 L 489.226562 539.730469 C 489.226562 552.925781 499.96875 563.664062 513.171875 563.664062 L 553.570312 563.664062 L 553.570312 613.730469 L 436.03125 613.730469 C 431.488281 613.730469 427.804688 617.410156 427.804688 621.949219 C 427.804688 626.488281 431.488281 630.171875 436.03125 630.171875 L 488.964844 630.171875 C 488.1875 632.53125 487.757812 635.046875 487.757812 637.660156 L 487.757812 677.125 C 487.757812 690.164062 498.367188 700.902344 511.402344 701.0625 C 515.769531 701.117188 519.195312 704.40625 519.195312 708.558594 L 519.195312 738.523438 C 519.195312 742.65625 515.832031 746.011719 511.703125 746.011719 L 396.914062 746.011719 C 392.371094 746.011719 388.691406 749.691406 388.691406 754.230469 C 388.691406 758.769531 392.371094 762.453125 396.914062 762.453125 L 482.445312 762.453125 C 482.078125 763.054688 481.71875 763.675781 481.386719 764.304688 L 415.925781 888.613281 L 350.464844 764.3125 C 344.519531 753.027344 332.902344 746.019531 320.144531 746.019531 Z M 320.144531 746.019531 " fill-opacity="1" fill-rule="nonzero"/></g><path fill="#000000" d="M 742.757812 1107.625 L 464.949219 1107.625 C 460.40625 1107.625 456.722656 1111.308594 456.722656 1115.847656 C 456.722656 1120.386719 460.40625 1124.066406 464.949219 1124.066406 L 742.757812 1124.066406 C 747.296875 1124.066406 750.980469 1120.386719 750.980469 1115.847656 C 750.980469 1111.308594 747.296875 1107.625 742.757812 1107.625 Z M 742.757812 1107.625 " fill-opacity="1" fill-rule="nonzero"/><path fill="#000000" d="M 366.90625 1107.625 L 89.097656 1107.625 C 84.554688 1107.625 80.871094 1111.308594 80.871094 1115.847656 C 80.871094 1120.386719 84.554688 1124.066406 89.097656 1124.066406 L 366.90625 1124.066406 C 371.445312 1124.066406 375.128906 1120.386719 375.128906 1115.847656 C 375.128906 1111.308594 371.445312 1107.625 366.90625 1107.625 Z M 366.90625 1107.625 " fill-opacity="1" fill-rule="nonzero"/><path fill="#000000" d="M 497.144531 1020.195312 C 498.539062 1020.195312 499.957031 1019.84375 501.25 1019.089844 L 566.714844 981.3125 C 570.648438 979.039062 572 974.015625 569.726562 970.082031 C 567.453125 966.148438 562.417969 964.800781 558.488281 967.070312 L 493.027344 1004.851562 C 489.09375 1007.125 487.742188 1012.148438 490.015625 1016.082031 C 491.53125 1018.726562 494.296875 1020.195312 497.144531 1020.195312 Z M 497.144531 1020.195312 " fill-opacity="1" fill-rule="nonzero"/><path fill="#000000" d="M 360.953125 865.890625 C 359.398438 861.625 354.679688 859.425781 350.410156 860.980469 C 346.144531 862.535156 343.941406 867.253906 345.5 871.519531 L 357.199219 903.648438 C 358.414062 906.992188 361.566406 909.058594 364.929688 909.058594 C 365.859375 909.058594 366.8125 908.898438 367.742188 908.5625 C 372.011719 907.003906 374.210938 902.289062 372.65625 898.019531 Z M 360.953125 865.890625 " fill-opacity="1" fill-rule="nonzero"/><path fill="#000000" d="M 369.097656 936.34375 L 382.121094 972.117188 C 383.339844 975.457031 386.488281 977.523438 389.851562 977.523438 C 390.785156 977.523438 391.734375 977.367188 392.664062 977.027344 C 396.933594 975.472656 399.132812 970.753906 397.585938 966.488281 L 384.5625 930.710938 C 383.003906 926.441406 378.285156 924.238281 374.019531 925.796875 C 369.742188 927.351562 367.542969 932.070312 369.097656 936.34375 Z M 369.097656 936.34375 " fill-opacity="1" fill-rule="nonzero"/><path fill="#000000" d="M 311.921875 921.644531 C 308.441406 924.5625 307.984375 929.753906 310.910156 933.226562 L 365.902344 998.738281 C 367.53125 1000.675781 369.855469 1001.675781 372.203125 1001.675781 C 374.070312 1001.675781 375.945312 1001.042969 377.488281 999.746094 C 380.964844 996.828125 381.421875 991.640625 378.5 988.164062 L 323.507812 922.65625 C 320.589844 919.179688 315.402344 918.726562 311.921875 921.644531 Z M 311.921875 921.644531 " fill-opacity="1" fill-rule="nonzero"/><path fill="#000000" d="M 258.113281 970.925781 L 341.570312 1019.089844 C 342.867188 1019.84375 344.28125 1020.195312 345.679688 1020.195312 C 348.523438 1020.195312 351.289062 1018.71875 352.8125 1016.082031 C 355.085938 1012.148438 353.734375 1007.117188 349.800781 1004.851562 L 266.34375 956.6875 C 262.40625 954.414062 257.375 955.761719 255.105469 959.695312 C 252.828125 963.628906 254.175781 968.660156 258.113281 970.925781 Z M 258.113281 970.925781 " fill-opacity="1" fill-rule="nonzero"/><path fill="#000000" d="M 476.128906 873.699219 L 441.945312 967.582031 C 440.390625 971.851562 442.589844 976.566406 446.859375 978.125 C 447.789062 978.460938 448.738281 978.621094 449.671875 978.621094 C 453.027344 978.621094 456.1875 976.546875 457.402344 973.210938 L 491.585938 879.328125 C 493.140625 875.0625 490.941406 870.34375 486.671875 868.789062 C 482.390625 867.234375 477.683594 869.433594 476.128906 873.699219 Z M 476.128906 873.699219 " fill-opacity="1" fill-rule="nonzero"/><path fill="#000000" d="M 534.855469 904.136719 L 509.800781 933.984375 C 506.882812 937.460938 507.335938 942.652344 510.8125 945.566406 C 512.355469 946.863281 514.226562 947.496094 516.097656 947.496094 C 518.441406 947.496094 520.777344 946.5 522.398438 944.558594 L 547.453125 914.707031 C 550.371094 911.226562 549.921875 906.042969 546.4375 903.125 C 542.960938 900.199219 537.773438 900.660156 534.855469 904.136719 Z M 534.855469 904.136719 " fill-opacity="1" fill-rule="nonzero"/><path fill="#000000" d="M 465.332031 999.753906 C 466.875 1001.050781 468.75 1001.679688 470.617188 1001.679688 C 472.964844 1001.679688 475.296875 1000.683594 476.921875 998.742188 L 506.042969 964.046875 C 508.964844 960.566406 508.511719 955.382812 505.027344 952.464844 C 501.542969 949.546875 496.359375 950 493.441406 953.484375 L 464.316406 988.175781 C 461.398438 991.644531 461.851562 996.828125 465.332031 999.753906 Z M 465.332031 999.753906 " fill-opacity="1" fill-rule="nonzero"/><path fill="#000000" d="M 345.683594 842.207031 C 341.34375 842.207031 337.820312 845.730469 337.820312 850.070312 C 337.820312 854.410156 341.34375 857.929688 345.683594 857.929688 C 350.027344 857.929688 353.550781 854.410156 353.550781 850.070312 C 353.542969 845.722656 350.027344 842.207031 345.683594 842.207031 Z M 345.683594 842.207031 " fill-opacity="1" fill-rule="nonzero"/><path fill="#000000" d="M 491.71875 865.785156 C 496.058594 865.785156 499.582031 862.261719 499.582031 857.921875 C 499.582031 853.585938 496.058594 850.0625 491.71875 850.0625 C 487.378906 850.0625 483.855469 853.585938 483.855469 857.921875 C 483.859375 862.269531 487.378906 865.785156 491.71875 865.785156 Z M 491.71875 865.785156 " fill-opacity="1" fill-rule="nonzero"/><path fill="#000000" d="M 554.734375 901.335938 C 559.074219 901.335938 562.597656 897.816406 562.597656 893.476562 C 562.597656 889.136719 559.074219 885.613281 554.734375 885.613281 C 550.394531 885.613281 546.871094 889.136719 546.871094 893.476562 C 546.871094 897.820312 550.386719 901.335938 554.734375 901.335938 Z M 554.734375 901.335938 " fill-opacity="1" fill-rule="nonzero"/><path fill="#000000" d="M 581.054688 971.671875 C 585.394531 971.671875 588.917969 968.148438 588.917969 963.808594 C 588.917969 959.46875 585.394531 955.949219 581.054688 955.949219 C 576.710938 955.949219 573.1875 959.46875 573.1875 963.808594 C 573.1875 968.148438 576.710938 971.671875 581.054688 971.671875 Z M 581.054688 971.671875 " fill-opacity="1" fill-rule="nonzero"/><path fill="#000000" d="M 303.957031 906.261719 C 299.613281 906.261719 296.089844 909.785156 296.089844 914.121094 C 296.089844 918.460938 299.613281 921.984375 303.957031 921.984375 C 308.296875 921.984375 311.820312 918.460938 311.820312 914.121094 C 311.8125 909.777344 308.296875 906.261719 303.957031 906.261719 Z M 303.957031 906.261719 " fill-opacity="1" fill-rule="nonzero"/><path fill="#000000" d="M 244.730469 962.179688 C 249.070312 962.179688 252.59375 958.660156 252.59375 954.320312 C 252.59375 949.980469 249.070312 946.457031 244.730469 946.457031 C 240.390625 946.457031 236.867188 949.980469 236.867188 954.320312 C 236.867188 958.660156 240.390625 962.179688 244.730469 962.179688 Z M 244.730469 962.179688 " fill-opacity="1" fill-rule="nonzero"/><g fill="#ffffff" fill-opacity="1"><g transform="translate(220.76952, 315.744323)"><g><path d="M 2.703125 -29.21875 L 0.296875 -29.21875 L 2.703125 -40.015625 L 13.5 -40.015625 C 14.820312 -40.015625 15.972656 -39.972656 16.953125 -39.890625 C 17.929688 -39.816406 18.800781 -39.671875 19.5625 -39.453125 C 20.320312 -39.234375 21 -38.953125 21.59375 -38.609375 C 22.195312 -38.265625 22.800781 -37.832031 23.40625 -37.3125 C 24.957031 -35.914062 26.160156 -34.117188 27.015625 -31.921875 C 27.878906 -29.722656 28.3125 -27.300781 28.3125 -24.65625 C 28.3125 -21.582031 27.75 -18.800781 26.625 -16.3125 C 25.507812 -13.832031 23.992188 -11.992188 22.078125 -10.796875 C 20.160156 -9.515625 17.300781 -8.875 13.5 -8.875 L 13.5 0 L 2.703125 0 Z M 13.921875 -19.265625 C 15.035156 -19.265625 15.953125 -19.753906 16.671875 -20.734375 C 17.398438 -21.710938 17.765625 -22.960938 17.765625 -24.484375 C 17.765625 -27.765625 16.34375 -29.484375 13.5 -29.640625 L 13.5 -19.265625 Z M 13.921875 -19.265625 "/></g></g></g><g fill="#ffffff" fill-opacity="1"><g transform="translate(250.229492, 315.744323)"><g><path d="M 2.515625 -19.375 L 0.296875 -19.375 L 2.515625 -29.21875 L 12.359375 -29.21875 L 12.359375 -26.578125 C 12.960938 -27.535156 13.691406 -28.234375 14.546875 -28.671875 C 15.410156 -29.117188 16.5 -29.34375 17.8125 -29.34375 C 18.019531 -29.34375 18.222656 -29.34375 18.421875 -29.34375 C 18.617188 -29.34375 18.859375 -29.300781 19.140625 -29.21875 L 16.984375 -19.375 C 16.378906 -19.695312 15.859375 -19.859375 15.421875 -19.859375 C 14.941406 -19.859375 14.476562 -19.75 14.03125 -19.53125 C 13.59375 -19.3125 13.253906 -19.019531 13.015625 -18.65625 C 12.898438 -18.457031 12.789062 -18.238281 12.6875 -18 C 12.59375 -17.757812 12.523438 -17.445312 12.484375 -17.0625 C 12.441406 -16.6875 12.410156 -16.207031 12.390625 -15.625 C 12.367188 -15.050781 12.359375 -14.320312 12.359375 -13.4375 L 12.359375 0 L 2.515625 0 Z M 2.515625 -19.375 "/></g></g></g><g fill="#ffffff" fill-opacity="1"><g transform="translate(269.069474, 315.744323)"><g><path d="M 13.6875 -29.8125 C 15.519531 -29.8125 17.207031 -29.441406 18.75 -28.703125 C 20.289062 -27.960938 21.617188 -26.910156 22.734375 -25.546875 C 23.859375 -24.191406 24.726562 -22.582031 25.34375 -20.71875 C 25.96875 -18.863281 26.28125 -16.835938 26.28125 -14.640625 C 26.28125 -12.398438 25.96875 -10.335938 25.34375 -8.453125 C 24.726562 -6.578125 23.859375 -4.96875 22.734375 -3.625 C 21.617188 -2.289062 20.269531 -1.253906 18.6875 -0.515625 C 17.101562 0.222656 15.375 0.59375 13.5 0.59375 C 11.695312 0.59375 10.046875 0.210938 8.546875 -0.546875 C 7.046875 -1.304688 5.734375 -2.363281 4.609375 -3.71875 C 3.492188 -5.082031 2.625 -6.691406 2 -8.546875 C 1.382812 -10.410156 1.078125 -12.441406 1.078125 -14.640625 C 1.078125 -16.835938 1.382812 -18.863281 2 -20.71875 C 2.625 -22.582031 3.492188 -24.1875 4.609375 -25.53125 C 5.734375 -26.875 7.066406 -27.921875 8.609375 -28.671875 C 10.148438 -29.429688 11.84375 -29.8125 13.6875 -29.8125 Z M 13.6875 -19.796875 C 12.757812 -19.796875 12.054688 -19.328125 11.578125 -18.390625 C 11.097656 -17.453125 10.859375 -16.101562 10.859375 -14.34375 C 10.859375 -12.539062 11.097656 -11.164062 11.578125 -10.21875 C 12.054688 -9.28125 12.757812 -8.8125 13.6875 -8.8125 C 14.601562 -8.8125 15.300781 -9.28125 15.78125 -10.21875 C 16.257812 -11.164062 16.5 -12.5 16.5 -14.21875 C 16.5 -17.9375 15.5625 -19.796875 13.6875 -19.796875 Z M 13.6875 -19.796875 "/></g></g></g><g fill="#ffffff" fill-opacity="1"><g transform="translate(296.429443, 315.744323)"><g><path d="M 2.515625 -19.375 L 0.296875 -19.375 L 2.515625 -29.21875 L 12.359375 -29.21875 L 12.359375 -20.40625 L 14.28125 -29.21875 C 14.882812 -29.257812 15.382812 -29.28125 15.78125 -29.28125 C 16.175781 -29.28125 16.535156 -29.28125 16.859375 -29.28125 C 18.703125 -29.28125 20.125 -29.109375 21.125 -28.765625 C 22.125 -28.429688 23.003906 -27.800781 23.765625 -26.875 C 24.359375 -26.15625 24.785156 -25.335938 25.046875 -24.421875 C 25.304688 -23.503906 25.5 -22.164062 25.625 -20.40625 L 27.546875 -29.21875 C 29.097656 -29.21875 30.351562 -29.195312 31.3125 -29.15625 C 32.28125 -29.113281 33.0625 -29.03125 33.65625 -28.90625 C 34.257812 -28.789062 34.75 -28.625 35.125 -28.40625 C 35.507812 -28.1875 35.921875 -27.898438 36.359375 -27.546875 C 37.753906 -26.335938 38.535156 -24.695312 38.703125 -22.625 C 38.742188 -22.257812 38.769531 -21.957031 38.78125 -21.71875 C 38.800781 -21.476562 38.820312 -21.15625 38.84375 -20.75 C 38.863281 -20.351562 38.875 -19.816406 38.875 -19.140625 C 38.875 -18.460938 38.875 -17.503906 38.875 -16.265625 L 38.875 -9.59375 L 40.984375 -9.59375 L 38.875 0 L 29.046875 0 L 29.046875 -12.59375 C 29.046875 -13.832031 29.046875 -14.800781 29.046875 -15.5 C 29.046875 -16.207031 29.035156 -16.738281 29.015625 -17.09375 C 28.992188 -17.457031 28.953125 -17.707031 28.890625 -17.84375 C 28.828125 -17.988281 28.757812 -18.140625 28.6875 -18.296875 C 28.476562 -18.660156 28.15625 -18.953125 27.71875 -19.171875 C 27.28125 -19.390625 26.800781 -19.476562 26.28125 -19.4375 C 26 -19.4375 25.78125 -19.414062 25.625 -19.375 L 25.625 0 L 15.78125 0 L 15.78125 -13.078125 C 15.78125 -14.035156 15.769531 -14.820312 15.75 -15.4375 C 15.726562 -16.0625 15.707031 -16.5625 15.6875 -16.9375 C 15.664062 -17.320312 15.625 -17.613281 15.5625 -17.8125 C 15.507812 -18.019531 15.441406 -18.203125 15.359375 -18.359375 C 14.992188 -19.078125 14.210938 -19.4375 13.015625 -19.4375 C 12.941406 -19.4375 12.851562 -19.4375 12.75 -19.4375 C 12.644531 -19.4375 12.515625 -19.414062 12.359375 -19.375 L 12.359375 0 L 2.515625 0 Z M 2.515625 -19.375 "/></g></g></g><g fill="#ffffff" fill-opacity="1"><g transform="translate(337.769399, 315.744323)"><g><path d="M 12.59375 -0.125 C 10.757812 -0.195312 9.351562 -0.382812 8.375 -0.6875 C 7.394531 -0.988281 6.460938 -1.539062 5.578125 -2.34375 C 4.097656 -3.65625 2.976562 -5.375 2.21875 -7.5 C 1.457031 -9.625 1.078125 -12.0625 1.078125 -14.8125 C 1.078125 -17.019531 1.335938 -19.019531 1.859375 -20.8125 C 2.378906 -22.613281 3.117188 -24.15625 4.078125 -25.4375 C 5.035156 -26.71875 6.203125 -27.695312 7.578125 -28.375 C 8.960938 -29.0625 10.5 -29.40625 12.1875 -29.40625 C 13.101562 -29.40625 13.929688 -29.300781 14.671875 -29.09375 C 15.410156 -28.894531 16.179688 -28.578125 16.984375 -28.140625 L 16.984375 -29.21875 L 26.453125 -29.21875 L 26.453125 -9.59375 L 28.5625 -9.59375 L 26.453125 0 L 16.625 0 L 16.625 -8.8125 L 14.640625 0 Z M 16.625 -15.234375 C 16.625 -15.953125 16.613281 -16.539062 16.59375 -17 C 16.570312 -17.46875 16.53125 -17.847656 16.46875 -18.140625 C 16.40625 -18.441406 16.332031 -18.679688 16.25 -18.859375 C 16.175781 -19.046875 16.0625 -19.21875 15.90625 -19.375 C 15.457031 -19.851562 14.914062 -20.09375 14.28125 -20.09375 C 13.363281 -20.09375 12.625 -19.625 12.0625 -18.6875 C 11.5 -17.75 11.21875 -16.519531 11.21875 -15 C 11.21875 -11.363281 12.640625 -9.546875 15.484375 -9.546875 C 15.554688 -9.546875 15.710938 -9.546875 15.953125 -9.546875 C 16.191406 -9.546875 16.414062 -9.5625 16.625 -9.59375 Z M 16.625 -15.234375 "/></g></g></g><g fill="#ffffff" fill-opacity="1"><g transform="translate(366.629368, 315.744323)"><g><path d="M 2.515625 -31.203125 L 0.296875 -31.203125 L 2.515625 -40.984375 L 12.359375 -40.984375 L 12.359375 -19.4375 L 15.90625 -29.21875 L 26.09375 -29.21875 L 20.640625 -15.953125 L 27.296875 0 L 16.3125 0 L 12.359375 -11.640625 L 12.359375 0 L 2.515625 0 Z M 2.515625 -31.203125 "/></g></g></g><g fill="#ffffff" fill-opacity="1"><g transform="translate(393.209343, 315.744323)"><g><path d="M 22.5625 -0.296875 C 21.320312 0.0234375 20.179688 0.253906 19.140625 0.390625 C 18.097656 0.523438 17.019531 0.59375 15.90625 0.59375 C 13.144531 0.59375 10.8125 0.125 8.90625 -0.8125 C 7.007812 -1.75 5.378906 -3.238281 4.015625 -5.28125 C 2.054688 -8.195312 1.078125 -11.457031 1.078125 -15.0625 C 1.078125 -17.144531 1.394531 -19.082031 2.03125 -20.875 C 2.675781 -22.675781 3.566406 -24.238281 4.703125 -25.5625 C 5.847656 -26.882812 7.179688 -27.921875 8.703125 -28.671875 C 10.222656 -29.429688 11.882812 -29.8125 13.6875 -29.8125 C 17.757812 -29.8125 20.859375 -27.972656 22.984375 -24.296875 C 24.703125 -21.222656 25.5625 -17.703125 25.5625 -13.734375 C 25.5625 -13.660156 25.5625 -13.472656 25.5625 -13.171875 C 25.5625 -12.867188 25.539062 -12.554688 25.5 -12.234375 L 11.15625 -12.234375 C 11.71875 -10.710938 12.476562 -9.632812 13.4375 -9 C 14.394531 -8.363281 15.773438 -8.046875 17.578125 -8.046875 C 18.617188 -8.046875 19.78125 -8.15625 21.0625 -8.375 C 22.34375 -8.59375 23.503906 -8.898438 24.546875 -9.296875 Z M 16.203125 -18.0625 C 16.003906 -19.457031 15.691406 -20.460938 15.265625 -21.078125 C 14.847656 -21.703125 14.257812 -22.015625 13.5 -22.015625 C 12.78125 -22.015625 12.171875 -21.65625 11.671875 -20.9375 C 11.171875 -20.21875 10.878906 -19.257812 10.796875 -18.0625 Z M 16.203125 -18.0625 "/></g></g></g><g fill="#ffffff" fill-opacity="1"><g transform="translate(419.669315, 315.744323)"><g><path d="M 2.515625 -19.375 L 0.296875 -19.375 L 2.515625 -29.21875 L 12.359375 -29.21875 L 12.359375 -26.578125 C 12.960938 -27.535156 13.691406 -28.234375 14.546875 -28.671875 C 15.410156 -29.117188 16.5 -29.34375 17.8125 -29.34375 C 18.019531 -29.34375 18.222656 -29.34375 18.421875 -29.34375 C 18.617188 -29.34375 18.859375 -29.300781 19.140625 -29.21875 L 16.984375 -19.375 C 16.378906 -19.695312 15.859375 -19.859375 15.421875 -19.859375 C 14.941406 -19.859375 14.476562 -19.75 14.03125 -19.53125 C 13.59375 -19.3125 13.253906 -19.019531 13.015625 -18.65625 C 12.898438 -18.457031 12.789062 -18.238281 12.6875 -18 C 12.59375 -17.757812 12.523438 -17.445312 12.484375 -17.0625 C 12.441406 -16.6875 12.410156 -16.207031 12.390625 -15.625 C 12.367188 -15.050781 12.359375 -14.320312 12.359375 -13.4375 L 12.359375 0 L 2.515625 0 Z M 2.515625 -19.375 "/></g></g></g><path stroke-linecap="butt" transform="matrix(0.75, 0, 0, 0.75, 445.499932, 255.744332)" fill="none" stroke-linejoin="miter" d="M 3.593842 41.033605 L 0.390716 41.033605 L 3.593842 26.642978 L 18.005302 26.642978 L 18.005302 65.606525 L 28.885512 65.606525 L 25.760512 80.002361 L 3.593842 80.002361 Z M 45.916765 79.846111 C 43.468848 79.741944 41.588639 79.486736 40.270931 79.080486 C 38.968847 78.679444 37.734472 77.945069 36.562597 76.87736 C 34.58343 75.116943 33.08343 72.825276 32.067804 70.002359 C 31.067804 67.174234 30.567804 63.919025 30.567804 60.236733 C 30.567804 57.304441 30.911554 54.642982 31.599054 52.247148 C 32.291763 49.83569 33.276138 47.778398 34.55218 46.075272 C 35.838638 44.366939 37.401138 43.064855 39.23968 42.169022 C 41.073014 41.257563 43.109473 40.79923 45.349056 40.79923 C 46.58864 40.79923 47.692807 40.939855 48.671974 41.210688 C 49.661557 41.471105 50.687599 41.89298 51.755307 42.481522 L 51.755307 41.033605 L 64.395934 41.033605 L 64.395934 67.205484 L 67.208435 67.205484 L 64.395934 80.002361 L 51.286557 80.002361 L 51.286557 68.241942 L 48.630307 80.002361 Z M 51.286557 59.689858 C 51.286557 58.726316 51.270932 57.934649 51.229266 57.325274 C 51.203224 56.710691 51.151141 56.205482 51.073016 55.799232 C 50.994891 55.39819 50.906349 55.080482 50.802182 54.846107 C 50.698015 54.596107 50.531349 54.36694 50.312599 54.158607 C 49.724057 53.52319 49.010515 53.205482 48.161557 53.205482 C 46.937598 53.205482 45.948015 53.830482 45.192806 55.080482 C 44.453223 56.330482 44.083431 57.971107 44.083431 60.002358 C 44.083431 64.856525 45.974056 67.283609 49.765724 67.283609 C 49.86989 67.283609 50.078224 67.283609 50.390724 67.283609 C 50.713641 67.283609 51.015724 67.257567 51.286557 67.205484 Z M 75.765728 54.080482 L 68.088643 54.080482 L 71.03656 41.033605 L 92.406355 41.033605 L 85.041771 67.205484 L 92.562605 67.205484 L 89.67198 80.002361 L 68.401143 80.002361 Z M 123.276151 79.611736 C 121.62511 80.028402 120.099068 80.325278 118.708442 80.507569 C 117.328234 80.705486 115.890734 80.799236 114.390733 80.799236 C 110.718858 80.799236 107.614691 80.174236 105.073024 78.924236 C 102.546982 77.663819 100.375106 75.679443 98.552189 72.97111 C 95.948022 69.075276 94.645939 64.726317 94.645939 59.924233 C 94.645939 57.148191 95.067814 54.564857 95.916772 52.169023 C 96.776147 49.757565 97.958439 47.674231 99.468856 45.919022 C 100.994898 44.158605 102.77094 42.773189 104.80219 41.757563 C 106.833441 40.741938 109.046983 40.23673 111.442816 40.23673 C 116.885525 40.23673 121.020943 42.689855 123.84386 47.596106 C 126.135527 51.71069 127.28136 56.408607 127.28136 61.679441 C 127.28136 61.783608 127.28136 62.038816 127.28136 62.439858 C 127.28136 62.846108 127.255319 63.257567 127.203235 63.674233 L 108.083441 63.674233 C 108.823024 65.705484 109.833441 67.148192 111.109483 68.007567 C 112.40115 68.856526 114.239692 69.278401 116.635525 69.278401 C 118.031359 69.278401 119.578234 69.132567 121.286568 68.846109 C 122.989693 68.549234 124.536568 68.132567 125.916777 67.596109 Z M 114.802192 55.919024 C 114.52615 54.05444 114.109483 52.715898 113.552192 51.892982 C 112.989692 51.059648 112.208441 50.642981 111.208441 50.642981 C 110.244899 50.642981 109.421983 51.127356 108.744899 52.090898 C 108.083441 53.038815 107.698024 54.314857 107.593857 55.919024 Z M 131.838653 54.158607 L 128.869902 54.158607 L 131.838653 41.033605 L 144.963655 41.033605 L 144.963655 44.54923 C 145.76053 43.273189 146.72928 42.346105 147.875113 41.757563 C 149.020947 41.17423 150.479281 40.877355 152.250114 40.877355 C 152.510531 40.877355 152.770948 40.877355 153.031364 40.877355 C 153.302198 40.877355 153.630323 40.929438 154.005323 41.033605 L 151.114697 54.158607 C 150.323031 53.731524 149.630322 53.517982 149.046989 53.517982 C 148.406364 53.517982 147.79178 53.663815 147.192822 53.965899 C 146.60428 54.252357 146.156363 54.637774 145.843863 55.11694 C 145.687613 55.392982 145.536571 55.689857 145.395946 56.017982 C 145.265738 56.330482 145.171988 56.736732 145.119905 57.247149 C 145.067821 57.752357 145.031363 58.392983 145.005321 59.158608 C 144.97928 59.929441 144.963655 60.898191 144.963655 62.070066 L 144.963655 80.002361 L 131.838653 80.002361 Z M 131.838653 54.158607 " stroke="#fefefe" stroke-width="2.15" stroke-opacity="1" stroke-miterlimit="4"/></svg>